<svg width="100" height="100" viewBox="0 0 100 100" fill="none" xmlns="http://www.w3.org/2000/svg">
<path fill-rule="evenodd" clip-rule="evenodd" d="M50.0001 8.33341C26.9876 8.33341 8.3334 26.9876 8.3334 50.0001C8.3334 73.0126 26.9876 91.6668 50.0001 91.6668C73.0126 91.6667 91.6667 73.0126 91.6667 50.0001C91.6667 26.9876 73.0126 8.33341 50.0001 8.33341ZM41.5417 64.7084C40.9565 64.1225 40.6278 63.3282 40.6278 62.5001C40.6278 61.672 40.9565 60.8777 41.5417 60.2918L51.8334 50.0001L41.5417 39.7084C41.2347 39.4223 40.9885 39.0773 40.8177 38.694C40.6468 38.3107 40.555 37.8969 40.5476 37.4773C40.5402 37.0577 40.6174 36.6409 40.7746 36.2518C40.9317 35.8626 41.1657 35.5092 41.4624 35.2124C41.7592 34.9157 42.1126 34.6817 42.5017 34.5246C42.8909 34.3674 43.3077 34.2902 43.7272 34.2976C44.1468 34.305 44.5607 34.3969 44.944 34.5677C45.3273 34.7385 45.6723 34.9847 45.9584 35.2917L58.4584 47.7917C59.0436 48.3777 59.3723 49.172 59.3723 50.0001C59.3723 50.8282 59.0436 51.6225 58.4584 52.2084L45.9584 64.7084C45.3725 65.2936 44.5782 65.6223 43.7501 65.6223C42.9219 65.6223 42.1277 65.2936 41.5417 64.7084Z" fill="url(#paint0_linear_1_73)"/>
<defs>
<linearGradient id="paint0_linear_1_73" x1="91.6667" y1="73.4235" x2="41.617" y2="73.0025" gradientUnits="userSpaceOnUse">
<stop stop-color="#AB5BFB"/>
<stop offset="1" stop-color="#7690EA"/>
</linearGradient>
</defs>
</svg>
